<svg xmlns="http://www.w3.org/2000/svg"  viewBox="0 0 100 100" width="400px" height="400px"><circle cx="50" cy="49" r="29" fill="#4b4dff"/><path fill="#4343bf" d="M50,81c-17.645,0-32-14.355-32-32s14.355-32,32-32s32,14.355,32,32S67.645,81,50,81z M50,23 c-14.337,0-26,11.663-26,26s11.663,26,26,26s26-11.663,26-26S64.337,23,50,23z"/><path fill="#3abcf8" d="M50,85c-19.851,0-36-16.149-36-36h10c0,14.337,11.663,26,26,26s26-11.663,26-26h10 C86,68.851,69.851,85,50,85z"/><polygon fill="#edf7f5" points="62,47 52,47 52,37 48,37 48,47 38,47 38,51 48,51 48,61 52,61 52,51 62,51"/></svg>