<svg width="13" height="13" viewBox="0 0 13 13" fill="none" xmlns="http://www.w3.org/2000/svg">
<g clip-path="url(#clip0_14_3934)">
<path d="M3.7341 12.0973C2.68235 12.0973 1.63059 12.0973 0.578832 12.0973C0.21826 12.0973 0.0540232 11.9357 0.0548256 11.578C0.0569655 10.8024 0.0342292 10.0257 0.0698049 9.25171C0.12571 8.03013 0.986214 6.97174 2.16824 6.63598C2.42663 6.56267 2.7008 6.51879 2.96909 6.51157C3.53429 6.49632 4.10136 6.49605 4.66629 6.522C5.94274 6.5806 7.08972 7.57344 7.34143 8.82659C7.38503 9.0433 7.40455 9.26777 7.40723 9.48902C7.41525 10.1932 7.41017 10.8976 7.4099 11.6018C7.4099 11.926 7.24246 12.0959 6.91612 12.0962C5.85554 12.0973 4.79469 12.0967 3.7341 12.0967V12.0973Z" fill="#DBE3FF"/>
<path d="M1.22933 3.26418C1.24511 1.84889 2.37364 0.752781 3.79854 0.769101C5.13972 0.784618 6.24337 1.92728 6.2324 3.28933C6.2209 4.69632 5.08568 5.78869 3.65303 5.77156C2.33352 5.75578 1.21462 4.5984 1.22933 3.26418Z" fill="#DBE3FF"/>
<path d="M10.7934 2.82729V4.14118H9.32594V2.83104H8.00482V1.35983H9.32086V0.0419312H10.7934V1.35421H12.1051V2.82729H10.7931H10.7934Z" fill="#DBE3FF"/>
</g>
<defs>
<clipPath id="clip0_14_3934">
<rect width="12.0554" height="12.0554" fill="white" transform="translate(0.0497437 0.0419312)"/>
</clipPath>
</defs>
</svg>
