<svg width="19" height="21" viewBox="0 0 19 21" fill="none" xmlns="http://www.w3.org/2000/svg">
<path d="M14.99 19.957H5.33998C4.46265 19.957 3.62124 19.6085 3.00087 18.9881C2.3805 18.3677 2.03198 17.5263 2.03198 16.649V3.558C2.03198 2.68066 2.3805 1.83926 3.00087 1.21889C3.62124 0.59852 4.46265 0.25 5.33998 0.25H14.99C15.8673 0.25 16.7087 0.59852 17.3291 1.21889C17.9495 1.83926 18.298 2.68066 18.298 3.558V16.649C18.298 17.5263 17.9495 18.3677 17.3291 18.9881C16.7087 19.6085 15.8673 19.957 14.99 19.957Z" stroke="#DBE3FF" stroke-width="0.5"/>
<g opacity="0.2">
<path d="M10.253 4.54199C11.3121 4.54199 12.3475 4.85606 13.2281 5.44447C14.1087 6.03289 14.7951 6.86922 15.2004 7.84772C15.6057 8.82622 15.7117 9.90293 15.5051 10.9417C15.2985 11.9805 14.7885 12.9346 14.0396 13.6835C13.2907 14.4325 12.3365 14.9425 11.2977 15.1491C10.2589 15.3557 9.18224 15.2497 8.20374 14.8444C7.22524 14.4391 6.3889 13.7527 5.80049 12.8721C5.21207 11.9914 4.89801 10.9561 4.89801 9.89699C4.89801 8.47676 5.4622 7.11469 6.46645 6.11044C7.47071 5.10618 8.83278 4.54199 10.253 4.54199Z" fill="#DBE3FF"/>
</g>
<path d="M6.69598 13.754C6.98171 13.0284 7.47839 12.4051 8.12189 11.9646C8.7654 11.5242 9.52618 11.2867 10.306 11.283C11.0736 11.2809 11.8229 11.5176 12.45 11.9603C13.0771 12.4031 13.551 13.0299 13.806 13.754C13.806 13.754 12.95 15.279 10.306 15.254C9.62845 15.3079 8.9478 15.2 8.32015 14.9392C7.6925 14.6784 7.13582 14.2722 6.69598 13.754Z" fill="#DBE3FF"/>
<path d="M10.252 7.21899C10.6756 7.21899 11.0898 7.34462 11.442 7.57999C11.7943 7.81535 12.0688 8.14989 12.2309 8.54128C12.3931 8.93268 12.4355 9.36337 12.3528 9.77888C12.2702 10.1944 12.0662 10.5761 11.7666 10.8756C11.467 11.1752 11.0854 11.3792 10.6699 11.4618C10.2544 11.5445 9.82368 11.5021 9.43228 11.3399C9.04088 11.1778 8.70634 10.9033 8.47098 10.551C8.23561 10.1988 8.10999 9.78464 8.10999 9.36099C8.10999 9.0797 8.16539 8.80116 8.27304 8.54128C8.38068 8.28141 8.53846 8.04527 8.73736 7.84637C8.93626 7.64747 9.1724 7.48969 9.43228 7.38204C9.69216 7.2744 9.9707 7.21899 10.252 7.21899Z" fill="#DBE3FF"/>
<path d="M1 5.20801H2.565" stroke="#4536FD" stroke-width="1.5" stroke-linecap="round" stroke-linejoin="round"/>
<path d="M1 9.89697H2.565" stroke="#4536FD" stroke-width="1.5" stroke-linecap="round" stroke-linejoin="round"/>
<path d="M1 14.8621H2.565" stroke="#4536FD" stroke-width="1.5" stroke-linecap="round" stroke-linejoin="round"/>
</svg>
