<svg width="482" height="292" viewBox="0 0 482 292" fill="none" xmlns="http://www.w3.org/2000/svg">
    <path d="M132.269 52.0177L53.9121 104.216L131.093 219.116L209.45 166.918L132.269 52.0177Z" fill="#F5F5F5"></path>
    <path d="M168.959 161.483L168.072 166.963L129.117 161.372L130.004 155.892L168.959 161.483Z" fill="#E0E0E0"></path>
    <path d="M149.342 141.934L154.929 142.733L148.735 180.928L143.141 180.122L149.342 141.934Z" fill="#E0E0E0"></path>
    <path d="M113.495 93.3902C113.551 93.4667 105.702 98.8009 95.9594 105.283C86.2173 111.764 78.2769 116.966 78.221 116.883C78.1651 116.8 86.0147 111.472 95.7569 104.984C105.499 98.4949 113.405 93.3067 113.495 93.3902Z" fill="#E0E0E0"></path>
    <path d="M142.281 86.1851C142.337 86.2686 129.278 95.0593 113.117 105.825C96.9573 116.591 83.7861 125.249 83.7442 125.173C83.7023 125.096 96.7338 116.292 112.915 105.526C129.096 94.7602 142.225 86.1017 142.281 86.1851Z" fill="#E0E0E0"></path>
    <path d="M148.056 94.7811C148.112 94.8645 135.053 103.662 118.893 114.428C102.733 125.194 89.5615 133.852 89.5196 133.769C89.4777 133.685 102.523 124.895 118.69 114.122C134.857 103.349 148.001 94.6976 148.056 94.7811Z" fill="#E0E0E0"></path>
    <path d="M153.833 103.384C153.889 103.467 140.829 112.265 124.669 123.024C108.509 133.783 95.3379 142.455 95.3379 142.372C95.3379 142.288 108.334 133.491 124.502 122.725C140.669 111.959 153.777 103.301 153.833 103.384Z" fill="#E0E0E0"></path>
    <path d="M159.587 111.987C159.642 112.07 146.583 120.861 130.423 131.627C114.263 142.393 101.092 151.051 101.057 150.968C101.022 150.884 114.074 142.094 130.255 131.328C146.436 120.562 159.587 111.903 159.587 111.987Z" fill="#E0E0E0"></path>
    <path d="M368.971 129.008L303.164 172.846L367.982 269.341L433.789 225.503L368.971 129.008Z" fill="#F5F5F5"></path>
    <path d="M399.79 220.959L399.043 225.563L366.324 220.869L367.078 216.265L399.79 220.959Z" fill="#E0E0E0"></path>
    <path d="M383.315 204.539L388.008 205.214L382.805 237.289L378.105 236.614L383.315 204.539Z" fill="#E0E0E0"></path>
    <path d="M353.181 163.806C353.237 163.889 346.651 168.375 338.466 173.821C330.281 179.266 323.605 183.62 323.549 183.557C323.493 183.495 330.086 178.995 338.264 173.543C346.442 168.09 353.125 163.688 353.181 163.806Z" fill="#E0E0E0"></path>
    <path d="M377.381 157.721C377.437 157.804 366.479 165.204 352.938 174.238C339.397 183.272 328.314 190.547 328.258 190.463C328.202 190.38 339.159 182.98 352.701 173.939C366.242 164.898 377.304 157.637 377.381 157.721Z" fill="#E0E0E0"></path>
    <path d="M382.234 164.94C382.29 165.023 371.333 172.423 357.792 181.464C344.25 190.505 333.167 197.766 333.112 197.682C333.056 197.599 343.978 190.234 357.554 181.193C371.13 172.152 382.193 164.863 382.234 164.94Z" fill="#E0E0E0"></path>
    <path d="M387.08 172.152C387.136 172.235 376.172 179.635 362.637 188.676C349.103 197.717 338.013 204.978 337.957 204.894C337.901 204.811 348.859 197.418 362.4 188.37C375.941 179.322 387.031 172.082 387.08 172.152Z" fill="#E0E0E0"></path>
    <path d="M391.967 179.391C392.023 179.475 381.065 186.868 367.524 195.909C353.983 204.95 342.9 212.211 342.844 212.134C342.788 212.058 353.745 204.651 367.287 195.61C380.828 186.569 391.876 179.308 391.967 179.391Z" fill="#E0E0E0"></path>
    <path d="M290.173 56.2449L218.369 18L161.82 123.291L233.624 161.536L290.173 56.2449Z" fill="#F5F5F5"></path>
    <path d="M221.335 128.595L216.782 130.146L205.217 98.314L209.777 96.7562L221.335 128.595Z" fill="#E0E0E0"></path>
    <path d="M228.32 105.755L229.982 110.325L198.234 121.153L196.572 116.584L228.32 105.755Z" fill="#E0E0E0"></path>
    <path d="M250.878 58.7907C250.822 58.895 243.546 55.1256 234.613 50.3756C225.681 45.6255 218.495 41.6822 218.551 41.5779C218.607 41.4736 225.891 45.243 234.823 49.9931C243.755 54.7431 250.934 58.6794 250.878 58.7907Z" fill="#E0E0E0"></path>
    <path d="M268.113 77.7282C268.057 77.8325 256.003 71.5177 241.191 63.6311C226.379 55.7445 214.423 49.2628 214.479 49.1585C214.535 49.0542 226.581 55.362 241.394 63.2556C256.206 71.1491 268.169 77.6239 268.113 77.7282Z" fill="#E0E0E0"></path>
    <path d="M263.881 85.6079C263.825 85.7122 251.771 79.4043 236.959 71.5108C222.146 63.6172 210.19 57.1425 210.246 57.0381C210.302 56.9338 222.349 63.2487 237.161 71.1352C251.973 79.0218 263.936 85.5036 263.881 85.6079Z" fill="#E0E0E0"></path>
    <path d="M259.648 93.4875C259.592 93.5918 247.539 87.2839 232.726 79.3973C217.914 71.5108 205.958 65.0499 206.014 64.9247C206.07 64.7995 218.116 71.1283 232.929 79.0148C247.741 86.9014 259.704 93.3832 259.648 93.4875Z" fill="#E0E0E0"></path>
    <path d="M255.416 101.367C255.36 101.471 243.306 95.1636 228.494 87.277C213.682 79.3904 201.719 72.9086 201.781 72.8043C201.844 72.7 213.884 79.0079 228.696 86.8945C243.509 94.7811 255.472 101.263 255.416 101.367Z" fill="#E0E0E0"></path>
    <path d="M442.193 272.876C442.193 272.973 351.93 273.057 240.604 273.057C129.277 273.057 39 272.994 39 272.876C39 272.758 129.25 272.695 240.604 272.695C351.958 272.695 442.193 272.772 442.193 272.876Z" fill="#263238"></path>
    <path d="M61.3197 229.319C62.5004 229.404 63.6519 229.725 64.7053 230.262C65.7588 230.8 66.6927 231.544 67.4513 232.449C68.9597 234.269 70.0277 236.411 70.573 238.708C71.7532 243.103 71.0269 248.298 69.7699 252.673C64.9931 250.969 62.039 245.892 60.6912 243.221C58.5961 239.007 57.346 230.105 61.2987 229.312" fill="#3794DD"></path>
    <path d="M76.65 258.007C75.9327 256.899 75.5225 255.622 75.4612 254.305C75.3999 252.988 75.6895 251.679 76.3008 250.51C76.9312 249.352 77.787 248.33 78.8182 247.505C79.8494 246.68 81.0353 246.068 82.3067 245.704C83.473 245.343 84.8278 245.196 85.8405 245.871C86.2969 246.215 86.6524 246.674 86.8699 247.202C87.0873 247.729 87.1587 248.304 87.0766 248.869C86.8933 249.998 86.4112 251.059 85.6798 251.942C83.3543 255.079 80.5329 257.687 76.6011 258.007" fill="#3794DD"></path>
    <path d="M77.1819 272.702C77.0783 272.407 77.0058 272.101 76.9655 271.791C76.8397 271.137 76.6721 270.296 76.4696 269.287C75.8427 266.526 75.6682 263.682 75.9528 260.865C76.2821 258.035 77.3646 255.343 79.0885 253.069C79.6152 252.389 80.2225 251.775 80.8972 251.24C81.0806 251.095 81.2717 250.961 81.4699 250.837C81.5329 250.785 81.6036 250.742 81.6794 250.711C80.796 251.463 79.989 252.299 79.2701 253.208C77.6371 255.485 76.6089 258.135 76.2811 260.914C75.8341 264.155 76.3858 267.125 76.7071 269.26C76.8747 270.324 77.0143 271.186 77.0912 271.784C77.1462 272.087 77.1765 272.394 77.1819 272.702Z" fill="#263238"></path>
    <path d="M62.8574 236.016C62.9372 236.126 63.0029 236.245 63.053 236.371C63.1787 236.649 63.3463 236.997 63.5418 237.435C63.9678 238.36 64.5614 239.702 65.2807 241.364C66.7194 244.696 68.6469 249.327 70.6581 254.488C72.6694 259.648 74.3804 264.356 75.5467 267.785C76.1473 269.496 76.6152 270.887 76.9434 271.854C77.0901 272.313 77.2018 272.681 77.2926 272.966C77.3424 273.094 77.3776 273.227 77.3974 273.363C77.3265 273.245 77.2703 273.119 77.2298 272.987C77.125 272.709 76.9923 272.347 76.8177 271.895L75.3442 267.862C74.0941 264.461 72.3482 259.759 70.3439 254.606C68.3396 249.453 66.44 244.807 65.0573 241.455C64.3589 239.807 63.8212 238.464 63.4231 237.484C63.2415 237.039 63.0949 236.684 62.9831 236.399C62.9307 236.275 62.8886 236.147 62.8574 236.016Z" fill="#263238"></path>
    <path d="M71.5031 262.98C70.0661 260.597 68.0803 258.589 65.7099 257.122C63.3394 255.656 60.6525 254.772 57.871 254.544C56.4743 254.446 54.7563 254.683 54.1278 255.934C53.4993 257.186 54.3373 258.716 55.3011 259.732C57.3487 261.865 59.9847 263.347 62.8767 263.99C65.7687 264.634 68.7873 264.41 71.552 263.348" fill="#3794DD"></path>
    <path d="M60.0235 258.313C60.3196 258.298 60.6164 258.31 60.9104 258.348C61.2547 258.366 61.5975 258.406 61.937 258.466C62.335 258.542 62.803 258.584 63.2918 258.723C63.8382 258.838 64.377 258.987 64.905 259.168C65.5168 259.364 66.1161 259.596 66.6998 259.864C68.0424 260.463 69.3123 261.212 70.485 262.096C71.6441 263.002 72.694 264.038 73.6136 265.184C74.0107 265.683 74.3769 266.206 74.7101 266.749C75.0112 267.218 75.2863 267.703 75.5341 268.202C75.7439 268.609 75.9305 269.027 76.0928 269.454C76.2328 269.771 76.3518 270.096 76.449 270.428C76.5524 270.705 76.6296 270.992 76.6794 271.283C76.6026 271.283 76.2674 270.087 75.3246 268.307C75.0679 267.829 74.7858 267.364 74.4796 266.916C74.1393 266.389 73.7709 265.881 73.3762 265.393C71.5496 263.145 69.2201 261.354 66.5741 260.163C65.9665 259.899 65.3869 259.648 64.8212 259.467C64.3019 259.279 63.7727 259.119 63.2359 258.988C61.2805 258.452 60.0165 258.389 60.0235 258.313Z" fill="#263238"></path>
    <path d="M187.52 130.104L162.798 256.54L159.586 273.092L324.4 272.299C331.802 272.264 338.367 265.72 340.735 255.997L369.968 136.634C371.777 129.255 367.81 121.577 362.195 121.584L195.342 121.758C191.711 121.751 188.456 125.173 187.52 130.104Z" fill="#3794DD"></path>
    <g opacity="0.5">
        <path opacity="0.5" d="M187.52 130.104L162.798 256.54L159.586 273.092L324.4 272.299C331.802 272.264 338.367 265.72 340.735 255.997L369.968 136.634C371.777 129.255 367.81 121.577 362.195 121.584L195.342 121.758C191.711 121.751 188.456 125.173 187.52 130.104Z" fill="black"></path>
    </g>
    <path d="M308.611 247.957L291.152 107.884C290.453 102.146 285.851 97.862 280.425 97.8829L242.154 98.0011C240.732 98.0171 239.328 98.3213 238.028 98.8952C236.727 99.4691 235.558 100.301 234.591 101.339L216.434 120.583L110.003 121.153C103.501 121.188 98.5009 127.322 99.3599 134.207L115.569 263.668C116.267 269.399 120.87 273.676 126.282 273.669L311.802 273.3C332.46 273.724 334.436 267.653 334.436 267.653C310.72 272.876 308.611 247.992 308.611 247.957Z" fill="#3794DD"></path>
    <g opacity="0.5">
        <path opacity="0.5" d="M228.614 219.944L222.357 226.634L174.17 183.46L180.427 176.77L228.614 219.944Z" fill="white"></path>
        <path opacity="0.5" d="M219.739 175.288L226.652 181.485L183.054 228.116L176.133 221.919L219.739 175.288Z" fill="white"></path>
    </g>
</svg>